<svg width="150" height="150" viewBox="0 0 150 150" fill="none" xmlns="http://www.w3.org/2000/svg">
<path d="M74.1161 120.078C70.9432 123.251 71.3388 128.791 75 132.452C78.6612 136.114 84.2015 136.509 87.3744 133.336L133.336 87.3744C136.509 84.2014 136.114 78.6611 132.452 75C128.791 71.3387 123.251 70.9432 120.078 74.1161L74.1161 120.078Z" stroke="#9B5DE5" stroke-width="10" stroke-linejoin="round"/>
<path d="M16.6637 62.6257C13.4908 65.7986 13.8864 71.3388 17.5476 75C21.2089 78.6613 26.7491 79.0568 29.922 75.8839L75.8839 29.922C79.0569 26.749 78.6613 21.2089 75.0001 17.5476C71.3388 13.8863 65.7986 13.4908 62.6257 16.6637L16.6637 62.6257Z" stroke="#9B5DE5" stroke-width="10" stroke-linejoin="round"/>
<path d="M98.5704 122.14C95.316 125.395 95.6458 131.001 99.3069 134.662C102.968 138.323 108.574 138.653 111.829 135.399L135.399 111.829C138.653 108.574 138.323 102.968 134.662 99.3068C131.001 95.6456 125.395 95.3158 122.14 98.5703L98.5704 122.14Z" stroke="#9B5DE5" stroke-width="10" stroke-linejoin="round"/>
<path d="M14.6014 38.1714C11.347 41.4258 11.6766 47.0319 15.3379 50.6931C18.9992 54.3544 24.6052 54.6841 27.8597 51.4296L51.4297 27.8596C54.6842 24.6051 54.3545 18.9991 50.6933 15.3378C47.032 11.6765 41.426 11.3468 38.1715 14.6013L14.6014 38.1714Z" stroke="#9B5DE5" stroke-width="10" stroke-linejoin="round"/>
<path d="M59.5321 46.2738L103.726 90.468L90.4681 103.726L46.2739 59.5321L59.5321 46.2738Z" stroke="#9B5DE5" stroke-width="10" stroke-linejoin="round"/>
</svg>
