<svg width="150" height="150" viewBox="0 0 150 150" fill="none" xmlns="http://www.w3.org/2000/svg">
<path d="M12.5438 18.3844C14.0156 12.7687 19.1344 9.375 24.5156 9.375C27.8344 9.375 30.8531 10.6219 33.15 12.6562C35.6824 10.532 38.8821 9.36768 42.1875 9.36768C45.4929 9.36768 48.6926 10.532 51.225 12.6562C53.6013 10.5373 56.6756 9.36906 59.8594 9.375C65.2406 9.375 70.3594 12.7687 71.8313 18.3844C73.2375 23.7469 75 32.3906 75 42.1875C74.9998 47.6583 73.6316 53.0423 71.0201 57.8496C68.4085 62.6568 64.6364 66.7348 60.0469 69.7125C57.5063 71.3719 56.25 73.5094 56.25 75.3375V79.05C56.25 79.2625 56.2625 79.4688 56.2875 79.6687C56.6063 81.9938 57.7594 90.6281 58.8375 99.5812C59.8969 108.366 60.9375 117.947 60.9375 121.875C60.9375 126.848 58.9621 131.617 55.4458 135.133C51.9294 138.65 47.1603 140.625 42.1875 140.625C37.2147 140.625 32.4456 138.65 28.9292 135.133C25.4129 131.617 23.4375 126.848 23.4375 121.875C23.4375 117.938 24.4781 108.375 25.5375 99.5812C26.6156 90.6281 27.7688 81.9938 28.0875 79.6687L28.125 79.05V75.3375C28.125 73.5094 26.8687 71.3719 24.3281 69.7125C19.7386 66.7348 15.9665 62.6568 13.3549 57.8496C10.7434 53.0423 9.37523 47.6583 9.375 42.1875C9.375 32.3906 11.1375 23.7469 12.5438 18.3844ZM56.25 46.875C56.25 48.1182 55.7561 49.3105 54.8771 50.1896C53.998 51.0686 52.8057 51.5625 51.5625 51.5625C50.3193 51.5625 49.127 51.0686 48.2479 50.1896C47.3689 49.3105 46.875 48.1182 46.875 46.875V23.4375C46.875 22.1943 46.3811 21.002 45.5021 20.1229C44.623 19.2439 43.4307 18.75 42.1875 18.75C40.9443 18.75 39.752 19.2439 38.8729 20.1229C37.9939 21.002 37.5 22.1943 37.5 23.4375V46.875C37.5 48.1182 37.0061 49.3105 36.1271 50.1896C35.248 51.0686 34.0557 51.5625 32.8125 51.5625C31.5693 51.5625 30.377 51.0686 29.4979 50.1896C28.6189 49.3105 28.125 48.1182 28.125 46.875V22.3594C28.125 21.4021 27.7447 20.484 27.0678 19.8072C26.3909 19.1303 25.4729 18.75 24.5156 18.75C22.9594 18.75 21.8906 19.6781 21.6094 20.7656C19.7619 27.7581 18.8012 34.9552 18.75 42.1875C18.7496 46.0972 19.7272 49.9449 21.5938 53.3803C23.4605 56.8156 26.1569 59.7294 29.4375 61.8562C33.5531 64.5281 37.5 69.225 37.5 75.3375V79.05C37.5 79.675 37.4594 80.3 37.3781 80.925C37.0594 83.2312 35.9156 91.8094 34.8469 100.706C33.7594 109.753 32.8125 118.65 32.8125 121.875C32.8125 124.361 33.8002 126.746 35.5584 128.504C37.3165 130.262 39.7011 131.25 42.1875 131.25C44.6739 131.25 47.0585 130.262 48.8166 128.504C50.5748 126.746 51.5625 124.361 51.5625 121.875C51.5625 118.65 50.625 109.753 49.5281 100.697C48.4594 91.8094 47.3156 83.2312 46.9969 80.9156C46.9256 80.2993 46.8849 79.6798 46.875 79.0594V75.3469C46.875 69.2344 50.8219 64.5375 54.9375 61.8656C58.2194 59.7379 60.9167 56.8226 62.7834 53.3855C64.6501 49.9484 65.627 46.0988 65.625 42.1875C65.625 33.45 64.05 25.65 62.7656 20.7656C62.4844 19.6875 61.4063 18.75 59.8594 18.75C58.9021 18.75 57.9841 19.1303 57.3072 19.8072C56.6303 20.484 56.25 21.4021 56.25 22.3594V46.875ZM84.375 51.5625C84.375 40.3737 88.8197 29.6431 96.7314 21.7314C104.643 13.8197 115.374 9.375 126.562 9.375C127.806 9.375 128.998 9.86886 129.877 10.7479C130.756 11.627 131.25 12.8193 131.25 14.0625V70.0594L131.428 71.7188C132.174 78.7156 132.89 85.7157 133.575 92.7188C134.728 104.494 135.938 117.694 135.938 121.875C135.938 126.848 133.962 131.617 130.446 135.133C126.929 138.65 122.16 140.625 117.188 140.625C112.215 140.625 107.446 138.65 103.929 135.133C100.413 131.617 98.4375 126.848 98.4375 121.875C98.4375 117.694 99.6469 104.494 100.8 92.7188C101.391 86.7469 101.981 81.0281 102.422 76.7906L102.609 75H93.75C91.2636 75 88.879 74.0123 87.1209 72.2541C85.3627 70.496 84.375 68.1114 84.375 65.625V51.5625ZM112.472 70.8094L112.275 72.7031C111.542 79.6792 110.83 86.6573 110.138 93.6375C108.947 105.703 107.812 118.294 107.812 121.875C107.812 124.361 108.8 126.746 110.558 128.504C112.317 130.262 114.701 131.25 117.188 131.25C119.674 131.25 122.058 130.262 123.817 128.504C125.575 126.746 126.562 124.361 126.562 121.875C126.562 118.284 125.428 105.703 124.237 93.6375C123.55 86.6569 122.837 79.6787 122.1 72.7031L121.903 70.8187L121.875 70.3125V19.0781C114.064 20.2055 106.921 24.1102 101.756 30.0764C96.5902 36.0427 93.748 43.6708 93.75 51.5625V65.625H107.812C108.47 65.6252 109.12 65.7637 109.72 66.0315C110.32 66.2992 110.858 66.6903 111.297 67.1792C111.737 67.6681 112.068 68.2439 112.271 68.8693C112.473 69.4947 112.542 70.1557 112.472 70.8094Z" fill="#00F5D4"/>
</svg>
