<svg width="553" height="211" viewBox="0 0 553 211" fill="none" xmlns="http://www.w3.org/2000/svg">
<mask id="mask0_2115_42" style="mask-type:alpha" maskUnits="userSpaceOnUse" x="0" y="4" width="548" height="203">
<path d="M0 49.1177H426.844V161.952H0V49.1177Z" fill="#00BBF9"/>
<path d="M544.593 100.377C548.43 102.715 548.43 108.285 544.593 110.623L389.014 205.44C385.015 207.877 379.891 204.999 379.891 200.317V10.6831C379.891 6.00081 385.015 3.12289 389.014 5.55963L544.593 100.377Z" fill="#00BBF9"/>
</mask>
<g mask="url(#mask0_2115_42)">
<rect width="553" height="211" fill="url(#paint0_linear_2115_42)"/>
</g>
<path d="M34.665 127V70.28H44.985L66.745 103.16H61.865L83.545 70.28H93.865V127H79.705V93.96L81.945 94.6L68.905 114.2H59.625L46.665 94.6L48.905 93.96V127H34.665ZM122.282 127.88C118.069 127.88 114.309 127 111.002 125.24C107.749 123.427 105.162 120.973 103.242 117.88C101.322 114.733 100.362 111.213 100.362 107.32C100.362 103.427 101.295 99.96 103.162 96.92C105.082 93.8267 107.695 91.4 111.002 89.64C114.309 87.8267 118.042 86.92 122.202 86.92C126.362 86.92 130.069 87.8267 133.322 89.64C136.629 91.4 139.242 93.8267 141.162 96.92C143.082 99.96 144.042 103.427 144.042 107.32C144.042 111.213 143.082 114.733 141.162 117.88C139.295 120.973 136.709 123.427 133.402 125.24C130.149 127 126.442 127.88 122.282 127.88ZM122.202 115.48C123.749 115.48 125.082 115.16 126.202 114.52C127.375 113.827 128.282 112.867 128.922 111.64C129.562 110.413 129.882 109 129.882 107.4C129.882 105.8 129.535 104.413 128.842 103.24C128.202 102.013 127.322 101.08 126.202 100.44C125.082 99.7467 123.749 99.4 122.202 99.4C120.709 99.4 119.375 99.7467 118.202 100.44C117.029 101.133 116.122 102.093 115.482 103.32C114.842 104.493 114.522 105.88 114.522 107.48C114.522 109.027 114.842 110.413 115.482 111.64C116.122 112.867 117.029 113.827 118.202 114.52C119.375 115.16 120.709 115.48 122.202 115.48ZM149.564 127V87.88H163.484V127H149.564ZM174.124 127V104.36C174.124 102.707 173.618 101.427 172.604 100.52C171.591 99.56 170.338 99.08 168.844 99.08C167.778 99.08 166.844 99.2933 166.044 99.72C165.244 100.147 164.604 100.76 164.124 101.56C163.698 102.307 163.484 103.24 163.484 104.36L158.044 102.2C158.044 99.0533 158.738 96.36 160.124 94.12C161.511 91.88 163.378 90.1467 165.724 88.92C168.071 87.6933 170.738 87.08 173.724 87.08C176.391 87.08 178.791 87.72 180.924 89C183.111 90.2267 184.844 91.96 186.124 94.2C187.404 96.44 188.044 99.08 188.044 102.12V127H174.124ZM198.684 127V104.36C198.684 102.707 198.178 101.427 197.164 100.52C196.151 99.56 194.898 99.08 193.404 99.08C192.391 99.08 191.458 99.2933 190.604 99.72C189.804 100.147 189.164 100.76 188.684 101.56C188.258 102.307 188.044 103.24 188.044 104.36L179.884 103.96C179.991 100.44 180.764 97.4267 182.204 94.92C183.644 92.4133 185.618 90.4933 188.124 89.16C190.684 87.7733 193.564 87.08 196.764 87.08C199.804 87.08 202.524 87.72 204.924 89C207.324 90.28 209.191 92.1467 210.524 94.6C211.911 97 212.604 99.88 212.604 103.24V127H198.684ZM239.637 127.88C235.264 127.88 231.397 127.027 228.037 125.32C224.677 123.56 222.037 121.133 220.117 118.04C218.197 114.947 217.237 111.4 217.237 107.4C217.237 103.453 218.17 99.96 220.037 96.92C221.904 93.8267 224.437 91.4 227.637 89.64C230.89 87.8267 234.544 86.92 238.597 86.92C242.544 86.92 246.037 87.7733 249.077 89.48C252.17 91.1333 254.57 93.4533 256.277 96.44C258.037 99.3733 258.917 102.733 258.917 106.52C258.917 107.32 258.864 108.147 258.757 109C258.704 109.8 258.544 110.733 258.277 111.8L223.797 111.96V103L252.757 102.76L246.517 106.68C246.464 104.493 246.144 102.707 245.557 101.32C244.97 99.88 244.117 98.7867 242.997 98.04C241.877 97.2933 240.464 96.92 238.757 96.92C236.997 96.92 235.477 97.3467 234.197 98.2C232.917 99.0533 231.93 100.253 231.237 101.8C230.544 103.347 230.197 105.213 230.197 107.4C230.197 109.64 230.57 111.56 231.317 113.16C232.064 114.707 233.13 115.88 234.517 116.68C235.904 117.48 237.61 117.88 239.637 117.88C241.557 117.88 243.237 117.56 244.677 116.92C246.17 116.28 247.504 115.293 248.677 113.96L255.957 121.24C254.037 123.427 251.69 125.08 248.917 126.2C246.197 127.32 243.104 127.88 239.637 127.88ZM289.534 127V104.92C289.534 103.107 289 101.693 287.934 100.68C286.867 99.6133 285.507 99.08 283.854 99.08C282.734 99.08 281.72 99.32 280.814 99.8C279.96 100.28 279.294 100.947 278.814 101.8C278.334 102.653 278.094 103.693 278.094 104.92L272.654 102.36C272.654 99.2133 273.347 96.52 274.734 94.28C276.12 91.9867 278.014 90.2267 280.414 89C282.867 87.72 285.64 87.08 288.734 87.08C291.56 87.08 294.067 87.7467 296.254 89.08C298.494 90.36 300.254 92.0933 301.534 94.28C302.814 96.4667 303.454 98.9467 303.454 101.72V127H289.534ZM264.174 127V87.88H278.094V127H264.174ZM315.706 127V71.72H329.626V127H315.706ZM307.066 99.48V87.88H338.266V99.48H307.066ZM361.078 127.88C357.398 127.88 354.118 127.16 351.238 125.72C348.411 124.227 346.171 122.173 344.518 119.56C342.918 116.893 342.118 113.88 342.118 110.52V87.88H356.038V110.52C356.038 111.587 356.251 112.52 356.678 113.32C357.105 114.12 357.691 114.733 358.438 115.16C359.185 115.587 360.065 115.8 361.078 115.8C362.571 115.8 363.771 115.32 364.678 114.36C365.638 113.4 366.118 112.12 366.118 110.52V87.88H380.038V110.52C380.038 113.933 379.238 116.947 377.638 119.56C376.038 122.173 373.798 124.227 370.918 125.72C368.091 127.16 364.811 127.88 361.078 127.88ZM387.143 127V87.88H401.063V127H387.143ZM411.703 127V104.36C411.703 102.707 411.196 101.427 410.183 100.52C409.169 99.56 407.916 99.08 406.423 99.08C405.356 99.08 404.423 99.2933 403.622 99.72C402.823 100.147 402.183 100.76 401.703 101.56C401.276 102.307 401.063 103.24 401.063 104.36L395.623 102.2C395.623 99.0533 396.316 96.36 397.703 94.12C399.089 91.88 400.956 90.1467 403.303 88.92C405.649 87.6933 408.316 87.08 411.303 87.08C413.969 87.08 416.369 87.72 418.503 89C420.689 90.2267 422.423 91.96 423.703 94.2C424.983 96.44 425.623 99.08 425.623 102.12V127H411.703ZM436.263 127V104.36C436.263 102.707 435.756 101.427 434.743 100.52C433.729 99.56 432.476 99.08 430.983 99.08C429.969 99.08 429.036 99.2933 428.183 99.72C427.383 100.147 426.743 100.76 426.263 101.56C425.836 102.307 425.623 103.24 425.623 104.36L417.463 103.96C417.569 100.44 418.343 97.4267 419.783 94.92C421.223 92.4133 423.196 90.4933 425.703 89.16C428.263 87.7733 431.143 87.08 434.343 87.08C437.383 87.08 440.103 87.72 442.503 89C444.903 90.28 446.769 92.1467 448.103 94.6C449.489 97 450.183 99.88 450.183 103.24V127H436.263Z" fill="#9B5DE5"/>
<defs>
<linearGradient id="paint0_linear_2115_42" x1="0" y1="105.5" x2="553" y2="105.5" gradientUnits="userSpaceOnUse">
<stop stop-color="#00BBF9" stop-opacity="0"/>
<stop offset="1" stop-color="#00BBF9"/>
</linearGradient>
</defs>
</svg>
