<svg width="180" height="181" viewBox="0 0 180 181" fill="none" xmlns="http://www.w3.org/2000/svg">
<path d="M75 46H30C21.7157 46 15 52.7157 15 61V151C15 159.284 21.7157 166 30 166H120C128.284 166 135 159.284 135 151V106H150V151C150 167.31 136.985 180.579 120.774 180.99L120 181H30L29.2256 180.99C13.2723 180.586 0.413998 167.728 0.00976562 151.774L0 151V61C0 44.4315 13.4315 31 30 31H75V46Z" fill="black"/>
<path d="M69.649 100.745C66.7466 103.7 66.7896 108.449 69.7449 111.351C72.7001 114.253 77.4487 114.21 80.351 111.255L69.649 100.745ZM178.744 7.9322C178.706 3.79023 175.318 0.462857 171.176 0.500305L103.679 1.11047C99.5371 1.14792 96.2097 4.536 96.2471 8.67796C96.2846 12.8199 99.6726 16.1473 103.815 16.1099L163.812 15.5675L164.355 75.565C164.392 79.707 167.78 83.0344 171.922 82.9969C176.064 82.9595 179.391 79.5714 179.354 75.4294L178.744 7.9322ZM75 106L80.351 111.255L176.595 13.2551L171.244 8L165.893 2.74485L69.649 100.745L75 106Z" fill="black"/>
<line x1="142.5" y1="122.516" x2="142.5" y2="106.5" stroke="black" stroke-width="15" stroke-linecap="round"/>
<line x1="58.5" y1="38.5" x2="74.5161" y2="38.5" stroke="black" stroke-width="15" stroke-linecap="round"/>
</svg>
