<svg width="250" height="250" viewBox="0 0 250 250" fill="none" xmlns="http://www.w3.org/2000/svg">
<path d="M114.583 93.7498C114.583 87.9969 119.247 83.3332 125 83.3332V83.3332C130.753 83.3332 135.417 87.9969 135.417 93.7498V135.417C135.417 141.169 130.753 145.833 125 145.833V145.833C119.247 145.833 114.583 141.169 114.583 135.417V93.7498ZM125 208.333C84.6875 208.333 52.0833 175.729 52.0833 135.417C52.0833 95.104 84.6875 62.4998 125 62.4998C155.349 62.4998 181.354 81.0953 192.3 107.413C194.08 111.692 198.491 114.583 203.125 114.583V114.583V114.583C209.59 114.583 215.104 108.925 212.859 102.863C209.362 93.4199 204.417 84.6776 198.229 76.979L205.656 69.5522C209.796 65.4124 210.026 58.7052 205.896 54.555V54.555C201.78 50.4173 195.149 50.7293 191.05 54.8853L183.542 62.4998C167.396 49.3748 147.083 41.6665 125 41.6665C100.136 41.6665 76.2903 51.5437 58.7087 69.1252C41.1272 86.7068 31.25 110.552 31.25 135.417C31.25 160.281 41.1272 184.126 58.7087 201.708C76.2903 219.289 100.136 229.167 125 229.167C129.191 229.167 133.293 228.877 137.316 228.339C143.826 227.468 146.322 219.673 143.29 213.846V213.846C141.226 209.879 136.872 207.539 132.421 207.975C129.986 208.214 127.493 208.333 125 208.333ZM156.25 20.8332C156.25 15.0802 151.586 10.4165 145.833 10.4165H104.167C98.4137 10.4165 93.75 15.0802 93.75 20.8332V20.8332C93.75 26.5861 98.4137 31.2498 104.167 31.2498H145.833C151.586 31.2498 156.25 26.5861 156.25 20.8332V20.8332ZM197.917 140.625V129.828C197.917 128.046 195.762 127.154 194.502 128.414L175.893 147.023C175.112 147.804 175.112 149.071 175.893 149.852L194.502 168.461C195.762 169.721 197.917 168.828 197.917 167.046V156.25C204.823 156.25 211.447 158.994 216.331 163.877C221.215 168.761 223.958 175.385 223.958 182.292C223.958 184.375 223.724 186.407 223.268 188.36C222.458 191.829 222.949 195.657 225.467 198.175V198.175C229.159 201.868 235.369 201.235 237.139 196.323C238.715 191.948 239.583 187.224 239.583 182.292C239.583 159.271 220.938 140.625 197.917 140.625ZM197.917 208.333C191.01 208.333 184.386 205.59 179.502 200.706C174.619 195.822 171.875 189.198 171.875 182.292C171.875 180.208 172.109 178.176 172.565 176.223C173.375 172.754 172.885 168.926 170.366 166.408V166.408C166.674 162.715 160.464 163.348 158.695 168.26C157.118 172.635 156.25 177.359 156.25 182.292C156.25 205.312 174.896 223.958 197.917 223.958V234.755C197.917 236.537 200.071 237.429 201.331 236.169L219.94 217.56C220.721 216.779 220.721 215.513 219.94 214.731L201.331 196.122C200.071 194.862 197.917 195.755 197.917 197.537V208.333Z" fill="black"/>
</svg>
