<svg width="250" height="250" viewBox="0 0 250 250" fill="none" xmlns="http://www.w3.org/2000/svg">
<path d="M112.24 171.614L160.156 139.844C161.719 138.802 162.5 137.326 162.5 135.417C162.5 133.507 161.719 132.031 160.156 130.989L112.24 99.2186C110.503 98.0033 108.722 97.8714 106.896 98.8228C105.069 99.7741 104.16 101.298 104.167 103.396V167.458C104.167 169.542 105.08 171.062 106.906 172.021C108.733 172.979 110.51 172.837 112.24 171.614ZM104.167 31.2498C101.215 31.2498 98.7431 30.2498 96.75 28.2498C94.7569 26.2498 93.7569 23.7776 93.75 20.8332C93.7431 17.8887 94.7431 15.4165 96.75 13.4165C98.757 11.4165 101.229 10.4165 104.167 10.4165H145.833C148.785 10.4165 151.26 11.4165 153.26 13.4165C155.26 15.4165 156.257 17.8887 156.25 20.8332C156.243 23.7776 155.243 26.2533 153.25 28.2603C151.257 30.2672 148.785 31.2637 145.833 31.2498H104.167ZM125 229.167C112.153 229.167 100.042 226.694 88.6667 221.75C77.2917 216.805 67.3542 210.076 58.8542 201.562C50.3542 193.048 43.6285 183.107 38.6771 171.739C33.7257 160.371 31.25 148.264 31.25 135.417C31.25 122.569 33.7257 110.458 38.6771 99.0832C43.6285 87.7082 50.3542 77.7707 58.8542 69.2707C67.3542 60.7707 77.2951 54.045 88.6771 49.0936C100.059 44.1422 112.167 41.6665 125 41.6665C135.764 41.6665 146.094 43.4026 155.99 46.8748C165.885 50.3471 175.174 55.3818 183.854 61.979L191.146 54.6873C193.056 52.7776 195.486 51.8228 198.438 51.8228C201.389 51.8228 203.819 52.7776 205.729 54.6873C207.639 56.5971 208.594 59.0276 208.594 61.979C208.594 64.9304 207.639 67.361 205.729 69.2707L198.438 76.5623C205.035 85.2429 210.069 94.5311 213.542 104.427C217.014 114.323 218.75 124.653 218.75 135.417C218.75 148.264 216.274 160.375 211.323 171.75C206.372 183.125 199.646 193.062 191.146 201.562C182.646 210.062 172.705 216.792 161.323 221.75C149.941 226.708 137.833 229.18 125 229.167ZM125 208.333C145.139 208.333 162.326 201.215 176.563 186.979C190.799 172.743 197.917 155.555 197.917 135.417C197.917 115.278 190.799 98.0901 176.563 83.854C162.326 69.6179 145.139 62.4998 125 62.4998C104.861 62.4998 87.6736 69.6179 73.4375 83.854C59.2014 98.0901 52.0833 115.278 52.0833 135.417C52.0833 155.555 59.2014 172.743 73.4375 186.979C87.6736 201.215 104.861 208.333 125 208.333Z" fill="black"/>
</svg>
