<svg width="250" height="250" viewBox="0 0 250 250" fill="none" xmlns="http://www.w3.org/2000/svg">
<path d="M20.8333 62.5002C20.8333 42.8543 20.8333 33.0418 26.9375 26.9377C33.0416 20.8335 42.8541 20.8335 62.5 20.8335C82.1458 20.8335 91.9583 20.8335 98.0625 26.9377C104.167 33.0418 104.167 42.8543 104.167 62.5002V187.5C104.167 207.146 104.167 216.958 98.0625 223.063C91.9583 229.167 82.1458 229.167 62.5 229.167C42.8541 229.167 33.0416 229.167 26.9375 223.063C20.8333 216.958 20.8333 207.146 20.8333 187.5V62.5002ZM145.833 62.5002C145.833 42.8543 145.833 33.0418 151.937 26.9377C158.042 20.8335 167.854 20.8335 187.5 20.8335C207.146 20.8335 216.958 20.8335 223.062 26.9377C229.167 33.0418 229.167 42.8543 229.167 62.5002V187.5C229.167 207.146 229.167 216.958 223.062 223.063C216.958 229.167 207.146 229.167 187.5 229.167C167.854 229.167 158.042 229.167 151.937 223.063C145.833 216.958 145.833 207.146 145.833 187.5V62.5002Z" fill="black"/>
</svg>
