<svg width="250" height="250" viewBox="0 0 250 250" fill="none" xmlns="http://www.w3.org/2000/svg">
<path fill-rule="evenodd" clip-rule="evenodd" d="M93.7501 15.625C93.7501 11.481 95.3963 7.50671 98.3265 4.57646C101.257 1.6462 105.231 0 109.375 0L140.625 0C144.769 0 148.743 1.6462 151.674 4.57646C154.604 7.50671 156.25 11.481 156.25 15.625C156.25 19.769 154.604 23.7433 151.674 26.6735C148.743 29.6038 144.769 31.25 140.625 31.25V32.3437C156.295 34.6091 171.286 40.2494 184.563 48.875L198.75 34.6875C199.823 33.5361 201.117 32.6127 202.554 31.9722C203.992 31.3317 205.543 30.9873 207.117 30.9595C208.69 30.9317 210.253 31.2212 211.713 31.8106C213.172 32.4 214.497 33.2772 215.61 34.39C216.723 35.5028 217.6 36.8283 218.189 38.2875C218.779 39.7467 219.068 41.3097 219.041 42.8832C219.013 44.4566 218.668 46.0084 218.028 47.4459C217.387 48.8834 216.464 50.1772 215.313 51.25L202.813 63.75C220.099 81.2567 230.978 104.08 233.693 128.533C236.407 152.986 230.797 177.64 217.77 198.511C204.743 219.382 185.06 235.252 161.901 243.556C138.741 251.86 113.459 252.113 90.1378 244.274C66.8168 236.436 46.8198 220.963 33.3778 200.357C19.9358 179.75 13.8338 155.214 16.058 130.712C18.2821 106.209 28.7023 83.1724 45.635 65.3232C62.5677 47.474 85.0239 35.8551 109.375 32.3437V31.25C105.231 31.25 101.257 29.6038 98.3265 26.6735C95.3963 23.7433 93.7501 19.769 93.7501 15.625ZM210.938 140.625C210.938 163.417 201.883 185.276 185.767 201.392C169.651 217.508 147.792 226.562 125 226.562C102.208 226.562 80.3495 217.508 64.2331 201.392C48.1167 185.276 39.0626 163.417 39.0626 140.625C39.0626 117.833 48.1167 95.9744 64.2331 79.858C80.3495 63.7416 102.208 54.6875 125 54.6875C147.792 54.6875 169.651 63.7416 185.767 79.858C201.883 95.9744 210.938 117.833 210.938 140.625ZM136.719 89.8438C136.719 86.7357 135.484 83.755 133.286 81.5573C131.089 79.3596 128.108 78.125 125 78.125C121.892 78.125 118.911 79.3596 116.714 81.5573C114.516 83.755 113.281 86.7357 113.281 89.8438V145.469L116.719 148.906L151.938 184.125C153.01 185.276 154.304 186.2 155.742 186.84C157.179 187.481 158.731 187.825 160.304 187.853C161.878 187.881 163.441 187.591 164.9 187.002C166.359 186.413 167.685 185.535 168.798 184.422C169.91 183.31 170.788 181.984 171.377 180.525C171.966 179.066 172.256 177.503 172.228 175.929C172.2 174.356 171.856 172.804 171.215 171.367C170.575 169.929 169.651 168.635 168.5 167.562L136.719 135.766V89.8438Z" fill="black"/>
</svg>
