<svg width="150" height="150" viewBox="0 0 150 150" fill="none" xmlns="http://www.w3.org/2000/svg">
<path d="M75 23.5625L70.3125 28.8125C70.3125 28.8125 62.3125 37.875 54.25 49.625C46.1875 61.375 37.5 75.4375 37.5 88.9375C37.5 98.8831 41.4509 108.421 48.4835 115.454C55.5161 122.487 65.0544 126.437 75 126.437C84.9456 126.437 94.4839 122.487 101.517 115.454C108.549 108.421 112.5 98.8831 112.5 88.9375C112.5 75.4375 103.812 61.375 95.75 49.625C87.6875 37.875 79.6875 28.8125 79.6875 28.8125L75 23.5625ZM75 43.125C77.75 46.375 80.25 49.0625 85.5 56.6875C93.0625 67.6875 100 81.6875 100 88.9375C100 102.812 88.875 113.937 75 113.937C61.125 113.937 50 102.812 50 88.9375C50 81.6875 56.9375 67.6875 64.5 56.6875C69.75 49.0625 72.25 46.375 75 43.125Z" fill="#00BBF9"/>
</svg>
